<svg width="65" height="20" viewBox="0 0 65 20" fill="none" xmlns="http://www.w3.org/2000/svg">
<g clip-path="url(#clip0_278_3386)">
<path fill-rule="evenodd" clip-rule="evenodd" d="M12.0782 0.112515C11.992 -0.0368065 11.7763 -0.0360578 11.6911 0.113902L0.581705 19.6671C0.49721 19.8159 0.604554 20.0005 0.775559 20.0005H23.1697C23.3414 20.0005 23.4487 19.8146 23.3629 19.6658L12.0782 0.112515ZM9.65889 12.793L9.65832 12.7921L9.65899 12.793L13.6406 11.7035L12.5644 15.6596L12.5641 15.6602L9.65899 12.793" fill="#F3F3F3"/>
<path d="M0.775559 20.0005H5.27555L9.41394 4.12183L0.581705 19.6671C0.49721 19.8159 0.604554 20.0005 0.775559 20.0005Z" fill="#F3F3F3"/>
<path d="M21.1535 15.8379L5.27539 20.0008H23.1696C23.3413 20.0008 23.4486 19.8147 23.3628 19.666L21.1535 15.8379Z" fill="#F3F3F3"/>
<path d="M18.7173 13.4062L21.1536 15.8377L12.0783 0.112569C11.9921 -0.0367527 11.7765 -0.0361093 11.6913 0.113839L9.41406 4.1219L18.7073 13.3963L18.7173 13.4062Z" fill="#F3F3F3"/>
<path d="M5.27539 19.9996L8.54716 19.1418L8.52879 7.5166L5.27539 19.9996Z" fill="#F3F3F3"/>
<path d="M8.52881 7.51724L18.717 13.4059L9.41384 4.12158L8.52881 7.51724Z" fill="#F3F3F3"/>
<path d="M8.54688 19.1429L21.1532 15.8378H21.1531L18.7167 13.4062L8.54688 19.1429Z" fill="#F3F3F3"/>
<path d="M8.54766 19.1428L10.7298 17.912L8.5332 9.98376L8.54766 19.1428Z" fill="#F3F3F3"/>
<path d="M18.7177 13.4066L16.5723 12.1666L10.73 17.9124L18.7177 13.4066Z" fill="#F3F3F3"/>
<path d="M8.53321 9.98364L16.5721 12.1661L8.5293 7.51746L8.53321 9.98364Z" fill="#F3F3F3"/>
<path d="M13.6407 11.7032L14.875 11.7052L8.53271 9.9834L9.00634 11.6927L13.6295 11.7032H13.6407Z" fill="#F3F3F3"/>
<path d="M9.64678 12.7709L9.00684 11.6927L10.7298 17.9116L11.9503 16.7114L9.65952 12.7926L9.64678 12.7709Z" fill="#F3F3F3"/>
<path d="M14.8749 11.7057L11.9497 16.7119L16.5715 12.1663L14.8749 11.7057Z" fill="#F3F3F3"/>
<path d="M13.6402 11.7035L9.00586 11.6931L9.65858 12.793L13.6402 11.7035Z" fill="#F3F3F3"/>
<path d="M12.5634 15.6598L9.6582 12.7926L11.949 16.7113L12.5634 15.6598Z" fill="#F3F3F3"/>
<path d="M14.8748 11.7059L13.6405 11.7039L12.564 15.6612L14.8748 11.7059Z" fill="#F3F3F3"/>
<path d="M0.775559 20.0005H5.27555L9.41394 4.12183L0.581705 19.6671C0.49721 19.8159 0.604554 20.0005 0.775559 20.0005Z" fill="url(#paint0_linear_278_3386)"/>
<path d="M21.1535 15.8379L5.27539 20.0008H23.1696C23.3413 20.0008 23.4486 19.8148 23.3628 19.666L21.1535 15.8379Z" fill="url(#paint1_linear_278_3386)"/>
<path d="M18.7173 13.4062L21.1536 15.8377L12.0783 0.1125C11.9921 -0.0367879 11.7765 -0.0360392 11.6913 0.113804L9.41406 4.12186L18.7073 13.3962L18.7173 13.4062Z" fill="url(#paint2_linear_278_3386)"/>
<path d="M5.27539 19.9996L8.54716 19.1418L8.52879 7.5166L5.27539 19.9996Z" fill="url(#paint3_linear_278_3386)"/>
<path d="M8.52881 7.51724L18.717 13.4059L9.41384 4.12158L8.52881 7.51724Z" fill="url(#paint4_linear_278_3386)"/>
<path d="M8.54688 19.1429L21.1532 15.8378H21.1531L18.7167 13.4062L8.54688 19.1429Z" fill="url(#paint5_linear_278_3386)"/>
<path d="M8.54766 19.1428L10.7298 17.912L8.5332 9.98376L8.54766 19.1428Z" fill="url(#paint6_linear_278_3386)"/>
<path d="M18.7177 13.4066L16.5723 12.1666L10.73 17.9124L18.7177 13.4066Z" fill="url(#paint7_linear_278_3386)"/>
<path d="M8.53321 9.98368L16.5721 12.1661L8.5293 7.51746L8.53321 9.98368Z" fill="url(#paint8_linear_278_3386)"/>
<path d="M13.6407 11.7032L14.875 11.7053L8.53271 9.9834L9.00634 11.6928L13.6295 11.7032H13.6407Z" fill="url(#paint9_linear_278_3386)"/>
<path d="M9.64678 12.7709L9.00684 11.6927L10.7298 17.9116L11.9503 16.7114L9.65952 12.7926L9.64678 12.7709Z" fill="url(#paint10_linear_278_3386)"/>
<path d="M14.8749 11.7057L11.9497 16.7118L16.5715 12.1662L14.8749 11.7057Z" fill="url(#paint11_linear_278_3386)"/>
<path d="M13.6402 11.7035L9.00586 11.6931L9.65858 12.7931L13.6402 11.7035Z" fill="url(#paint12_linear_278_3386)"/>
<path d="M12.5634 15.6598L9.6582 12.7926L11.949 16.7113L12.5634 15.6598Z" fill="url(#paint13_linear_278_3386)"/>
<path d="M14.8748 11.706L13.6405 11.7039L12.564 15.6612L14.8748 11.706Z" fill="url(#paint14_linear_278_3386)"/>
<path d="M36.1709 11.7572L33.4102 5.54864L30.1457 12.9333L28.9893 15.5238C28.8196 15.9038 28.4412 16.1487 28.0234 16.1487H27.2583L32.6288 4.25164C32.6982 4.09034 32.8024 3.96918 32.9412 3.88839C33.0802 3.80785 33.2305 3.76733 33.3927 3.76733C33.5664 3.76733 33.7228 3.81054 33.8616 3.89709C34.0005 3.98354 34.1047 4.10193 34.1741 4.25164L39.5466 16.15L38.7954 16.1494C38.3757 16.1491 37.996 15.9016 37.8279 15.5187L36.6919 12.9333L36.1709 11.7572Z" fill="#F3F3F3"/>
<path d="M29.81 11.7945H36.9955V12.9693H29.81V11.7945Z" fill="#F3F3F3"/>
<path fill-rule="evenodd" clip-rule="evenodd" d="M41.3975 16.1486V4.56271C41.3975 4.35521 41.4639 4.18821 41.5972 4.06122C41.7302 3.93447 41.9067 3.87097 42.1268 3.87097H46.242C47.5269 3.87097 48.5255 4.18231 49.2373 4.80486C49.9492 5.42752 50.3052 6.30944 50.3052 7.45098C50.3052 8.59235 49.9463 9.48034 49.2286 10.1142C48.5107 10.7485 47.5153 11.0654 46.242 11.0654H42.8213V15.0959C42.8213 15.6773 42.3481 16.1486 41.7642 16.1486L41.3975 16.1486ZM46.1028 9.88885C47.9665 9.88885 48.8984 9.07605 48.8984 7.45048C48.8984 5.84793 47.9665 5.04651 46.1028 5.04651H42.8211V9.88885H46.1028Z" fill="#F3F3F3"/>
<path d="M52.771 15.0959V3.87097H53.1379C53.7216 3.87097 54.1948 4.3423 54.1948 4.9238V16.1486H53.828C53.2442 16.1486 52.771 15.6773 52.771 15.0959L52.771 15.0959Z" fill="#F3F3F3"/>
<path d="M57.754 13.8142C58.2863 14.2409 58.8072 14.5521 59.3168 14.7481C59.8261 14.9443 60.3761 15.0422 60.9664 15.0422C61.8229 15.0422 62.4741 14.8462 62.9198 14.454C63.3654 14.0623 63.5884 13.4972 63.5884 12.7592C63.5884 11.272 62.6507 10.5283 60.7755 10.5283H59.8551C59.6698 10.5283 59.5223 10.4677 59.4123 10.3467C59.3023 10.2257 59.2474 10.0846 59.2474 9.92301C59.2474 9.76171 59.3023 9.62329 59.4123 9.508C59.5223 9.3928 59.6698 9.33501 59.8551 9.33501H60.4976C61.4005 9.33501 62.095 9.13606 62.5812 8.73827C63.0674 8.34054 63.3106 7.76724 63.3106 7.01756C63.3106 6.36039 63.1136 5.85614 62.7202 5.50428C62.3265 5.15273 61.7708 4.97684 61.0531 4.97684C60.509 4.97684 59.9824 5.07788 59.4731 5.27949C58.9636 5.48133 58.4543 5.78968 57.9451 6.20469L57.8334 6.03944C57.493 5.53515 57.6467 4.84247 58.1774 4.54285C58.4314 4.39958 58.7041 4.2732 58.9956 4.16393C59.6728 3.91053 60.3701 3.78357 61.0879 3.78357C62.1993 3.78357 63.0819 4.06327 63.736 4.62232C64.3898 5.18168 64.7171 5.93399 64.7171 6.87921C64.7171 7.58254 64.5404 8.1965 64.1874 8.72105C63.8342 9.24576 63.3452 9.62329 62.7202 9.85382C63.461 10.0614 64.0253 10.4189 64.4132 10.9261C64.801 11.4336 64.9948 12.0618 64.9948 12.8112C64.9948 13.872 64.636 14.7078 63.9183 15.3188C63.2004 15.93 62.2223 16.2354 60.9838 16.2354C60.2312 16.2354 59.5106 16.1087 58.8219 15.8549C58.5334 15.7488 58.2638 15.6264 58.013 15.4878C57.4694 15.1877 57.2973 14.4907 57.6442 13.977L57.754 13.8142Z" fill="#F3F3F3"/>
</g>
<defs>
<linearGradient id="paint0_linear_278_3386" x1="10.0846" y1="18.5052" x2="5.29452" y2="4.3049" gradientUnits="userSpaceOnUse">
<stop stop-color="#C3C4C3"/>
<stop offset="0.0948988" stop-color="#D7D8D7"/>
<stop offset="0.212581" stop-color="#E9E9E9"/>
<stop offset="0.355404" stop-color="#F5F5F5"/>
<stop offset="0.547581" stop-color="#FCFCFC"/>
<stop offset="1" stop-color="white"/>
</linearGradient>
<linearGradient id="paint1_linear_278_3386" x1="1.18351" y1="13.8615" x2="0.468887" y2="23.6998" gradientUnits="userSpaceOnUse">
<stop stop-color="#C3C4C3"/>
<stop offset="0.0948988" stop-color="#D7D8D7"/>
<stop offset="0.212581" stop-color="#E9E9E9"/>
<stop offset="0.355404" stop-color="#F5F5F5"/>
<stop offset="0.547581" stop-color="#FCFCFC"/>
<stop offset="1" stop-color="white"/>
</linearGradient>
<linearGradient id="paint2_linear_278_3386" x1="6.8472" y1="14.1845" x2="21.6519" y2="17.808" gradientUnits="userSpaceOnUse">
<stop stop-color="#C3C4C3"/>
<stop offset="0.0948988" stop-color="#D7D8D7"/>
<stop offset="0.212581" stop-color="#E9E9E9"/>
<stop offset="0.355404" stop-color="#F5F5F5"/>
<stop offset="0.547581" stop-color="#FCFCFC"/>
<stop offset="1" stop-color="white"/>
</linearGradient>
<linearGradient id="paint3_linear_278_3386" x1="9.10655" y1="17.3554" x2="2.7226" y2="13.1813" gradientUnits="userSpaceOnUse">
<stop stop-color="#B7B8B8"/>
<stop offset="0.114546" stop-color="#C9CACA"/>
<stop offset="0.303782" stop-color="#E0E1E1"/>
<stop offset="0.50531" stop-color="#F1F1F1"/>
<stop offset="0.725645" stop-color="#FBFBFB"/>
<stop offset="1" stop-color="white"/>
</linearGradient>
<linearGradient id="paint4_linear_278_3386" x1="5.719" y1="11.3756" x2="16.5068" y2="17.1616" gradientUnits="userSpaceOnUse">
<stop stop-color="#B7B8B8"/>
<stop offset="0.114546" stop-color="#C9CACA"/>
<stop offset="0.303782" stop-color="#E0E1E1"/>
<stop offset="0.50531" stop-color="#F1F1F1"/>
<stop offset="0.725645" stop-color="#FBFBFB"/>
<stop offset="1" stop-color="white"/>
</linearGradient>
<linearGradient id="paint5_linear_278_3386" x1="11.9172" y1="11.6861" x2="9.2985" y2="20.8773" gradientUnits="userSpaceOnUse">
<stop stop-color="#B7B8B8"/>
<stop offset="0.114546" stop-color="#C9CACA"/>
<stop offset="0.303782" stop-color="#E0E1E1"/>
<stop offset="0.50531" stop-color="#F1F1F1"/>
<stop offset="0.725645" stop-color="#FBFBFB"/>
<stop offset="1" stop-color="white"/>
</linearGradient>
<linearGradient id="paint6_linear_278_3386" x1="10.7692" y1="13.7371" x2="6.80294" y2="12.9412" gradientUnits="userSpaceOnUse">
<stop stop-color="#B7B8B8"/>
<stop offset="0.211828" stop-color="#CDCECE"/>
<stop offset="0.518815" stop-color="#E8E9E9"/>
<stop offset="0.791553" stop-color="#F9F9F9"/>
<stop offset="1" stop-color="white"/>
</linearGradient>
<linearGradient id="paint7_linear_278_3386" x1="13.3803" y1="10.3015" x2="9.63302" y2="17.8037" gradientUnits="userSpaceOnUse">
<stop stop-color="#B7B8B8"/>
<stop offset="0.211828" stop-color="#CDCECE"/>
<stop offset="0.518815" stop-color="#E8E9E9"/>
<stop offset="0.791553" stop-color="#F9F9F9"/>
<stop offset="1" stop-color="white"/>
</linearGradient>
<linearGradient id="paint8_linear_278_3386" x1="6.35007" y1="11.2649" x2="12.9481" y2="16.1912" gradientUnits="userSpaceOnUse">
<stop stop-color="#B7B8B8"/>
<stop offset="0.211828" stop-color="#CDCECE"/>
<stop offset="0.518815" stop-color="#E8E9E9"/>
<stop offset="0.791553" stop-color="#F9F9F9"/>
<stop offset="1" stop-color="white"/>
</linearGradient>
<linearGradient id="paint9_linear_278_3386" x1="7.53383" y1="11.6882" x2="10.7936" y2="15.1703" gradientUnits="userSpaceOnUse">
<stop stop-color="#ABACAC"/>
<stop offset="0.187095" stop-color="#BCBDBD"/>
<stop offset="0.729612" stop-color="#ECECEC"/>
<stop offset="1" stop-color="white"/>
</linearGradient>
<linearGradient id="paint10_linear_278_3386" x1="12.8088" y1="14.6186" x2="8.34943" y2="12.5695" gradientUnits="userSpaceOnUse">
<stop stop-color="#ABACAC"/>
<stop offset="0.187095" stop-color="#BCBDBD"/>
<stop offset="0.729612" stop-color="#ECECEC"/>
<stop offset="1" stop-color="white"/>
</linearGradient>
<linearGradient id="paint11_linear_278_3386" x1="13.4501" y1="9.77731" x2="9.52002" y2="14.7456" gradientUnits="userSpaceOnUse">
<stop stop-color="#ABACAC"/>
<stop offset="0.187095" stop-color="#BCBDBD"/>
<stop offset="0.729612" stop-color="#ECECEC"/>
<stop offset="1" stop-color="white"/>
</linearGradient>
<linearGradient id="paint12_linear_278_3386" x1="12.4929" y1="12.9402" x2="12.8068" y2="10.8561" gradientUnits="userSpaceOnUse">
<stop stop-color="#9FA0A0"/>
<stop offset="0.174311" stop-color="#A4A5A5"/>
<stop offset="0.402447" stop-color="#B5B5B5"/>
<stop offset="0.660365" stop-color="#D0D0D0"/>
<stop offset="0.938425" stop-color="#F5F5F5"/>
<stop offset="1" stop-color="white"/>
</linearGradient>
<linearGradient id="paint13_linear_278_3386" x1="13.4586" y1="13.9182" x2="9.71478" y2="12.1909" gradientUnits="userSpaceOnUse">
<stop stop-color="#9FA0A0"/>
<stop offset="0.174311" stop-color="#A4A5A5"/>
<stop offset="0.402447" stop-color="#B5B5B5"/>
<stop offset="0.660365" stop-color="#D0D0D0"/>
<stop offset="0.938425" stop-color="#F5F5F5"/>
<stop offset="1" stop-color="white"/>
</linearGradient>
<linearGradient id="paint14_linear_278_3386" x1="12.8569" y1="10.9293" x2="10.9736" y2="14.5727" gradientUnits="userSpaceOnUse">
<stop stop-color="#9FA0A0"/>
<stop offset="0.174311" stop-color="#A4A5A5"/>
<stop offset="0.402447" stop-color="#B5B5B5"/>
<stop offset="0.660365" stop-color="#D0D0D0"/>
<stop offset="0.938425" stop-color="#F5F5F5"/>
<stop offset="1" stop-color="white"/>
</linearGradient>
<clipPath id="clip0_278_3386">
<rect width="64.9948" height="20" fill="white" transform="translate(0 0.000976562)"/>
</clipPath>
</defs>
</svg>
