<svg width="79" height="24" viewBox="0 0 79 24" fill="none" xmlns="http://www.w3.org/2000/svg">
<g clip-path="url(#clip0_278_4470)">
<path fill-rule="evenodd" clip-rule="evenodd" d="M14.4915 0.135141C14.4438 0.0521544 14.3554 0.000976562 14.2596 0.000976562C14.164 0.000976562 14.0755 0.0521544 14.0278 0.135161L0.697177 23.6015C0.650447 23.6843 0.651116 23.7857 0.698964 23.8678C0.746772 23.95 0.834565 24.0006 0.929612 24.0007H27.8002C27.8959 24.001 27.9845 23.9501 28.0324 23.8673C28.0804 23.7844 28.0805 23.6822 28.0326 23.5993L14.4915 0.135141ZM11.5895 15.3482L16.367 14.0408L15.0734 18.7922L11.5895 15.3482Z" fill="#030303"/>
<path d="M0.931849 24.0015H6.33207L11.2971 4.94763L0.697239 23.6023C0.650309 23.6854 0.651207 23.7872 0.699564 23.8695C0.747911 23.9518 0.836422 24.0021 0.931839 24.0015H0.931849Z" fill="#6C6D6D"/>
<path d="M25.378 19.005L6.32922 23.9999H27.7996C27.8953 24.0002 27.9839 23.9493 28.0318 23.8664C28.0798 23.7836 28.0799 23.6814 28.032 23.5985L25.378 19.005Z" fill="#6C6D6D"/>
<path d="M22.4587 16.0883L25.3792 19.0058L14.4889 0.140634C14.4412 0.0576176 14.3528 0.00646973 14.257 0.00646973C14.1613 0.00646973 14.0729 0.0576176 14.0252 0.140634L11.2922 4.95128L22.4467 16.0763L22.4587 16.0883Z" fill="#6C6D6D"/>
<g opacity="0.88">
<path d="M6.32922 23.9976L10.2549 22.9688L10.233 9.01843L6.32922 23.9976Z" fill="#6C6D6D"/>
<path d="M10.2327 9.01976L22.4572 16.0866L11.2939 4.94507L10.2327 9.01976Z" fill="#6C6D6D"/>
<path d="M10.2546 22.9703L25.3809 19.0042L22.4572 16.0867L10.2546 22.9703Z" fill="#6C6D6D"/>
</g>
<g opacity="0.76">
<path d="M10.2547 22.9715L12.8726 21.4941L10.2372 11.9803L10.2547 22.9715Z" fill="#6C6D6D"/>
<path d="M22.4568 16.0882L19.8827 14.5997L12.8721 21.4943L22.4568 16.0882Z" fill="#6C6D6D"/>
<path d="M10.2376 11.9806L19.8837 14.5998L10.2333 9.02136L10.2376 11.9806Z" fill="#6C6D6D"/>
</g>
<g opacity="0.64">
<path d="M16.3671 14.045L17.8481 14.0472L10.2379 11.9808L10.8057 14.0319L16.3539 14.045H16.3671Z" fill="#6C6D6D"/>
<path d="M11.5739 15.3257L10.8054 14.0315L12.8729 21.4942L14.3375 20.0541L11.5892 15.352L11.5739 15.3257Z" fill="#6C6D6D"/>
<path d="M17.8483 14.047L14.338 20.0543L19.884 14.5998L17.8483 14.047Z" fill="#6C6D6D"/>
</g>
<g opacity="0.52">
<path d="M16.3673 14.0445L10.806 14.0314L11.5898 15.3519L16.3673 14.0445Z" fill="#6C6D6D"/>
<path d="M15.0759 18.7922L11.5909 15.3514L14.3392 20.0535L15.0759 18.7922Z" fill="#6C6D6D"/>
<path d="M17.8487 14.0479L16.3676 14.0457L15.0751 18.7937L17.8487 14.0479Z" fill="#6C6D6D"/>
</g>
<g style="mix-blend-mode:multiply" opacity="0.7">
<g opacity="0.7">
<path d="M0.931849 24.0018H6.33207L11.2971 4.94788L0.697239 23.6025C0.650309 23.6856 0.651207 23.7875 0.699564 23.8698C0.747911 23.9521 0.836422 24.0024 0.931839 24.0018H0.931849Z" fill="url(#paint0_linear_278_4470)"/>
<path d="M25.378 19.0052L6.32922 24.0012H27.7996C27.8953 24.0015 27.9839 23.9506 28.0318 23.8678C28.0798 23.7849 28.0799 23.6827 28.032 23.5998L25.378 19.0052Z" fill="url(#paint1_linear_278_4470)"/>
<path d="M22.4587 16.0886L25.3792 19.0061L14.4889 0.140878C14.4412 0.0578618 14.3528 0.00671387 14.257 0.00671387C14.1613 0.00671387 14.0729 0.0578618 14.0252 0.140878L11.2922 4.95152L22.4467 16.0765L22.4587 16.0886Z" fill="url(#paint2_linear_278_4470)"/>
</g>
<g opacity="0.9">
<path d="M6.32922 24.0003L10.2549 22.9715L10.233 9.02112L6.32922 24.0003Z" fill="url(#paint3_linear_278_4470)"/>
<path d="M10.2327 9.02232L22.4571 16.0891L11.2938 4.94763L10.2327 9.02232Z" fill="url(#paint4_linear_278_4470)"/>
<path d="M10.2546 22.9728L25.3809 19.0067L22.4572 16.0892L10.2546 22.9728Z" fill="url(#paint5_linear_278_4470)"/>
</g>
<path d="M10.2547 22.9718L12.8726 21.4944L10.2372 11.9806L10.2547 22.9718Z" fill="url(#paint6_linear_278_4470)"/>
<path d="M22.4568 16.0884L19.8827 14.6L12.8721 21.4946L22.4568 16.0884Z" fill="url(#paint7_linear_278_4470)"/>
<path d="M10.2376 11.9808L19.8837 14.6L10.2333 9.02161L10.2376 11.9808Z" fill="url(#paint8_linear_278_4470)"/>
<path d="M16.3671 14.0447L17.8481 14.0469L10.2379 11.9805L10.8057 14.0315L16.3539 14.0447H16.3671Z" fill="url(#paint9_linear_278_4470)"/>
<path d="M11.5739 15.3254L10.8054 14.0311L12.8729 21.4938L14.3375 20.0537L11.5892 15.3517L11.5739 15.3254Z" fill="url(#paint10_linear_278_4470)"/>
<path d="M17.8483 14.0466L14.338 20.0539L19.884 14.5994L17.8483 14.0466Z" fill="url(#paint11_linear_278_4470)"/>
<path d="M16.3674 14.0448L10.806 14.0316L11.5899 15.3522L16.3674 14.0448Z" fill="url(#paint12_linear_278_4470)"/>
<path d="M15.076 18.7924L11.5909 15.3517L14.3393 20.0537L15.076 18.7924Z" fill="url(#paint13_linear_278_4470)"/>
<path d="M17.8487 14.0481L16.3677 14.0459L15.0752 18.794L17.8487 14.0481Z" fill="url(#paint14_linear_278_4470)"/>
</g>
<path fill-rule="evenodd" clip-rule="evenodd" d="M40.6566 4.62276C40.4876 4.51703 40.2917 4.46239 40.0923 4.46545C39.9013 4.4646 39.7137 4.51515 39.5489 4.61174C39.3787 4.71324 39.2465 4.86782 39.1727 5.05176L32.7068 19.4334H33.6275C34.1302 19.4338 34.5859 19.138 34.7902 18.6788L36.1631 15.591H44.0832L45.4318 18.6711C45.6344 19.1339 46.0915 19.433 46.5967 19.4334H47.502L41.0328 5.05176C40.9527 4.87461 40.8218 4.72527 40.6566 4.62276ZM43.4578 14.1707H36.7906L36.8104 14.1245L40.1104 6.62013L43.4347 14.1245L43.4578 14.1707Z" fill="#121313"/>
<path fill-rule="evenodd" clip-rule="evenodd" d="M59.1704 5.72187C58.3131 4.96945 57.1112 4.59325 55.5646 4.59325H50.6144C50.3797 4.58156 50.1499 4.66435 49.9765 4.82314C49.8138 4.98185 49.7262 5.20219 49.7355 5.42925V19.4325H50.1756C50.5132 19.4331 50.8372 19.2994 51.0761 19.0608C51.3151 18.8223 51.4494 18.4985 51.4494 18.1609V13.2878H55.5679C57.1005 13.2878 58.2992 12.9046 59.1638 12.1383C60.0284 11.3719 60.4603 10.2987 60.4596 8.91852C60.4574 7.53909 60.0277 6.47354 59.1704 5.72187ZM55.3969 11.8697H51.449V6.01317H55.4003C57.6443 6.01317 58.7663 6.98192 58.7663 8.91941C58.7641 10.8855 57.6409 11.8682 55.3969 11.8675V11.8697Z" fill="#121313"/>
<path d="M63.866 4.59216H63.426V18.162C63.426 18.8647 63.996 19.4342 64.6987 19.4336H65.1387V5.86489C65.1387 5.16197 64.5689 4.59216 63.866 4.59216Z" fill="#121313"/>
<path d="M77.4423 13.1221C76.9751 12.5083 76.2957 12.076 75.404 11.8252C76.1254 11.5705 76.7451 11.0893 77.1706 10.4535C77.6031 9.79278 77.8252 9.0165 77.8075 8.22701C77.8075 7.08372 77.4141 6.17437 76.6272 5.49896C75.8403 4.82356 74.777 4.48549 73.4371 4.48474C72.5765 4.48439 71.723 4.6402 70.9181 4.94454C70.5765 5.07113 70.2455 5.22451 69.9281 5.40326C69.6231 5.57911 69.4052 5.87397 69.3266 6.21708C69.2478 6.56018 69.3156 6.92055 69.5134 7.21169L69.6476 7.4119C70.2002 6.94701 70.8208 6.5697 71.4878 6.29318C72.0929 6.05144 72.7383 5.92749 73.3898 5.92798C74.2544 5.92796 74.9237 6.14028 75.3974 6.56488C75.8711 6.98949 76.108 7.59927 76.108 8.39421C76.108 9.30063 75.8147 9.994 75.2279 10.4744C74.6413 10.9547 73.8049 11.1952 72.7188 11.196H71.9488C71.7556 11.1861 71.567 11.2571 71.4283 11.3919C71.2895 11.5267 71.2131 11.7132 71.2172 11.9066C71.2151 12.0965 71.286 12.2801 71.4152 12.4192C71.552 12.5676 71.7472 12.6481 71.9488 12.6392H73.0565C75.3145 12.6392 76.4435 13.5383 76.4435 15.3364C76.4435 16.2289 76.1751 16.912 75.6382 17.3858C75.1014 17.8595 74.3175 18.0964 73.2864 18.0964C72.6083 18.1021 71.935 17.9816 71.3009 17.7411C70.6214 17.4634 69.9885 17.0832 69.4243 16.6135L69.2923 16.8105C69.0928 17.1069 69.0268 17.4734 69.1105 17.8208C69.1941 18.1682 69.4198 18.4645 69.7323 18.6376C70.0452 18.8087 70.3706 18.9558 70.7058 19.0776C71.5389 19.385 72.4203 19.5408 73.3084 19.5374C74.8001 19.5374 75.9778 19.1682 76.8417 18.4297C77.7056 17.6912 78.139 16.6825 78.1419 15.4035C78.1419 14.4964 77.9087 13.7359 77.4423 13.1221H77.4423Z" fill="#121313"/>
</g>
<defs>
<linearGradient id="paint0_linear_278_4470" x1="12.1009" y1="22.2092" x2="6.35526" y2="5.16614" gradientUnits="userSpaceOnUse">
<stop stop-color="#101211" stop-opacity="0.898039"/>
<stop offset="0.12" stop-color="#101211" stop-opacity="0.509804"/>
<stop offset="0.39" stop-color="#101211" stop-opacity="0.109804"/>
<stop offset="1" stop-color="#101211" stop-opacity="0.01"/>
</linearGradient>
<linearGradient id="paint1_linear_278_4470" x1="1.42087" y1="16.6327" x2="0.563049" y2="28.4393" gradientUnits="userSpaceOnUse">
<stop stop-color="#101211" stop-opacity="0.898039"/>
<stop offset="0.12" stop-color="#101211" stop-opacity="0.509804"/>
<stop offset="0.39" stop-color="#101211" stop-opacity="0.109804"/>
<stop offset="1" stop-color="#101211" stop-opacity="0.01"/>
</linearGradient>
<linearGradient id="paint2_linear_278_4470" x1="8.2145" y1="17.0193" x2="25.979" y2="21.3694" gradientUnits="userSpaceOnUse">
<stop stop-color="#101211" stop-opacity="0.898039"/>
<stop offset="0.12" stop-color="#101211" stop-opacity="0.509804"/>
<stop offset="0.39" stop-color="#101211" stop-opacity="0.109804"/>
<stop offset="1" stop-color="#101211" stop-opacity="0.01"/>
</linearGradient>
<linearGradient id="paint3_linear_278_4470" x1="10.9265" y1="20.8279" x2="3.26537" y2="15.819" gradientUnits="userSpaceOnUse">
<stop stop-color="#101211" stop-opacity="0.898039"/>
<stop offset="0.12" stop-color="#101211" stop-opacity="0.509804"/>
<stop offset="0.39" stop-color="#101211" stop-opacity="0.109804"/>
<stop offset="1" stop-color="#101211" stop-opacity="0.01"/>
</linearGradient>
<linearGradient id="paint4_linear_278_4470" x1="6.86047" y1="13.6531" x2="19.8061" y2="20.595" gradientUnits="userSpaceOnUse">
<stop stop-color="#101211" stop-opacity="0.898039"/>
<stop offset="0.12" stop-color="#101211" stop-opacity="0.509804"/>
<stop offset="0.39" stop-color="#101211" stop-opacity="0.109804"/>
<stop offset="1" stop-color="#101211" stop-opacity="0.01"/>
</linearGradient>
<linearGradient id="paint5_linear_278_4470" x1="14.2985" y1="14.0252" x2="11.1563" y2="25.0538" gradientUnits="userSpaceOnUse">
<stop stop-color="#101211" stop-opacity="0.898039"/>
<stop offset="0.12" stop-color="#101211" stop-opacity="0.509804"/>
<stop offset="0.39" stop-color="#101211" stop-opacity="0.109804"/>
<stop offset="1" stop-color="#101211" stop-opacity="0.01"/>
</linearGradient>
<linearGradient id="paint6_linear_278_4470" x1="12.9198" y1="16.4844" x2="8.1615" y2="15.5299" gradientUnits="userSpaceOnUse">
<stop stop-color="#101211" stop-opacity="0.898039"/>
<stop offset="0.12" stop-color="#101211" stop-opacity="0.509804"/>
<stop offset="0.39" stop-color="#101211" stop-opacity="0.109804"/>
<stop offset="1" stop-color="#101211" stop-opacity="0.01"/>
</linearGradient>
<linearGradient id="paint7_linear_278_4470" x1="16.0527" y1="12.362" x2="11.5557" y2="21.3642" gradientUnits="userSpaceOnUse">
<stop stop-color="#101211" stop-opacity="0.898039"/>
<stop offset="0.12" stop-color="#101211" stop-opacity="0.509804"/>
<stop offset="0.39" stop-color="#101211" stop-opacity="0.109804"/>
<stop offset="1" stop-color="#101211" stop-opacity="0.01"/>
</linearGradient>
<linearGradient id="paint8_linear_278_4470" x1="7.61775" y1="13.5187" x2="15.5357" y2="19.4296" gradientUnits="userSpaceOnUse">
<stop stop-color="#101211" stop-opacity="0.898039"/>
<stop offset="0.12" stop-color="#101211" stop-opacity="0.509804"/>
<stop offset="0.39" stop-color="#101211" stop-opacity="0.109804"/>
<stop offset="1" stop-color="#101211" stop-opacity="0.01"/>
</linearGradient>
<linearGradient id="paint9_linear_278_4470" x1="9.03798" y1="14.0263" x2="12.9479" y2="18.2051" gradientUnits="userSpaceOnUse">
<stop stop-color="#101211" stop-opacity="0.898039"/>
<stop offset="0.12" stop-color="#101211" stop-opacity="0.509804"/>
<stop offset="0.39" stop-color="#101211" stop-opacity="0.109804"/>
<stop offset="1" stop-color="#101211" stop-opacity="0.01"/>
</linearGradient>
<linearGradient id="paint10_linear_278_4470" x1="15.3674" y1="17.5431" x2="10.0163" y2="15.0837" gradientUnits="userSpaceOnUse">
<stop stop-color="#101211" stop-opacity="0.898039"/>
<stop offset="0.12" stop-color="#101211" stop-opacity="0.509804"/>
<stop offset="0.39" stop-color="#101211" stop-opacity="0.109804"/>
<stop offset="1" stop-color="#101211" stop-opacity="0.01"/>
</linearGradient>
<linearGradient id="paint11_linear_278_4470" x1="16.1385" y1="11.7328" x2="11.4221" y2="17.6944" gradientUnits="userSpaceOnUse">
<stop stop-color="#101211" stop-opacity="0.898039"/>
<stop offset="0.12" stop-color="#101211" stop-opacity="0.509804"/>
<stop offset="0.39" stop-color="#101211" stop-opacity="0.109804"/>
<stop offset="1" stop-color="#101211" stop-opacity="0.01"/>
</linearGradient>
<linearGradient id="paint12_linear_278_4470" x1="14.9876" y1="15.5285" x2="15.3648" y2="13.0273" gradientUnits="userSpaceOnUse">
<stop stop-color="#101211" stop-opacity="0.898039"/>
<stop offset="0.12" stop-color="#101211" stop-opacity="0.619608"/>
<stop offset="0.46" stop-color="#101211" stop-opacity="0.141176"/>
<stop offset="1" stop-color="#101211" stop-opacity="0.01"/>
</linearGradient>
<linearGradient id="paint13_linear_278_4470" x1="16.1513" y1="16.702" x2="11.6581" y2="14.6294" gradientUnits="userSpaceOnUse">
<stop stop-color="#101211" stop-opacity="0.898039"/>
<stop offset="0.12" stop-color="#101211" stop-opacity="0.619608"/>
<stop offset="0.46" stop-color="#101211" stop-opacity="0.141176"/>
<stop offset="1" stop-color="#101211" stop-opacity="0.01"/>
</linearGradient>
<linearGradient id="paint14_linear_278_4470" x1="15.4264" y1="13.1168" x2="13.1683" y2="17.4898" gradientUnits="userSpaceOnUse">
<stop stop-color="#101211" stop-opacity="0.898039"/>
<stop offset="0.12" stop-color="#101211" stop-opacity="0.619608"/>
<stop offset="0.46" stop-color="#101211" stop-opacity="0.141176"/>
<stop offset="1" stop-color="#101211" stop-opacity="0.01"/>
</linearGradient>
<clipPath id="clip0_278_4470">
<rect width="78.1419" height="24" fill="white" transform="translate(0 0.000976562)"/>
</clipPath>
</defs>
</svg>
